<svg width="1280" height="720" xmlns="http://www.w3.org/2000/svg" xmlns:xlink="http://www.w3.org/1999/xlink" overflow="hidden"><defs><clipPath id="clip0"><rect x="0" y="0" width="1280" height="720"/></clipPath></defs><g clip-path="url(#clip0)"><rect x="0" y="0" width="1280" height="720" fill="#FFFFFF"/><rect x="67.5001" y="157.5" width="1029" height="542" stroke="#351835" stroke-width="1.13333" stroke-linejoin="round" stroke-miterlimit="10" fill="#F2F2F2"/><path d="M515.5 25.8339C515.5 13.4992 525.499 3.50005 537.834 3.50005L667.166 3.50005C679.501 3.50005 689.5 13.4992 689.5 25.8339L689.5 115.166C689.5 127.501 679.501 137.5 667.166 137.5L537.834 137.5C525.499 137.5 515.5 127.501 515.5 115.166Z" stroke="#000000" stroke-width="1.13333" stroke-linejoin="round" stroke-miterlimit="10" fill="#FFFFFF" fill-rule="evenodd"/><text font-family="Avenir Next LT Pro Light,Avenir Next LT Pro Light_MSFontService,sans-serif" font-weight="300" font-size="21" transform="translate(579.317 26)">Data <tspan font-size="21" x="-45.6267" y="26">Preprocessing</tspan><tspan font-size="21" x="19.1467" y="52">-</tspan><tspan font-size="21" x="-28.9867" y="77">Population </tspan><tspan font-size="21" x="-34.3334" y="103">Initialization</tspan></text><path d="M521.5 454.667C521.5 445.738 528.738 438.5 537.667 438.5L676.333 438.5C685.262 438.5 692.5 445.738 692.5 454.667L692.5 519.333C692.5 528.262 685.262 535.5 676.333 535.5L537.667 535.5C528.738 535.5 521.5 528.262 521.5 519.333Z" stroke="#000000" stroke-width="1.13333" stroke-linejoin="round" stroke-miterlimit="10" fill="#FFFFFF" fill-rule="evenodd"/><text font-family="Avenir Next LT Pro Light,Avenir Next LT Pro Light_MSFontService,sans-serif" font-weight="300" font-size="21" transform="translate(535.944 476)">Pareto Frontier<tspan font-size="15" x="21.1133" y="20">Multi</tspan><tspan font-size="15" x="54.4467" y="20">-</tspan><tspan font-size="15" x="59.1133" y="20">objective </tspan><tspan font-size="15" x="3.86005" y="37">Ranking of solutions</tspan></text><path d="M762.5 455.834C762.5 447.365 769.365 440.5 777.834 440.5L922.167 440.5C930.635 440.5 937.5 447.365 937.5 455.834L937.5 517.167C937.5 525.635 930.635 532.5 922.167 532.5L777.834 532.5C769.365 532.5 762.5 525.635 762.5 517.167Z" stroke="#000000" stroke-width="1.13333" stroke-linejoin="round" stroke-miterlimit="10" fill="#FFFFFF" fill-rule="evenodd"/><text font-family="Avenir Next LT Pro Light,Avenir Next LT Pro Light_MSFontService,sans-serif" font-weight="300" font-size="21" transform="translate(781.147 476)">Niched Pareto<tspan font-size="15" x="17.5867" y="20">Degradation of </tspan><tspan font-size="15" x="15.3334" y="37">similar solutions</tspan></text><path d="M174.5 217.667C174.5 198.797 189.797 183.5 208.667 183.5L996.333 183.5C1015.2 183.5 1030.5 198.797 1030.5 217.667L1030.5 354.333C1030.5 373.203 1015.2 388.5 996.333 388.5L208.667 388.5C189.797 388.5 174.5 373.203 174.5 354.333Z" stroke="#000000" stroke-width="1.13333" stroke-linejoin="round" stroke-miterlimit="10" fill="#FFFFFF" fill-rule="evenodd"/><text font-family="Avenir Next LT Pro Light,Avenir Next LT Pro Light_MSFontService,sans-serif" font-weight="300" font-size="21" transform="translate(405.476 213)">Training models with Individual Solutions</text><rect x="632.5" y="229.5" width="355" height="122" stroke="#1B151B" stroke-width="1.13333" stroke-linejoin="round" stroke-miterlimit="10" fill="#FFFFFF"/><rect x="643.5" y="237.5" width="354" height="122" stroke="#1B151B" stroke-width="1.13333" stroke-linejoin="round" stroke-miterlimit="10" fill="#FFFFFF"/><rect x="654.5" y="245.5" width="355" height="122" stroke="#1B151B" stroke-width="1.13333" stroke-linejoin="round" stroke-miterlimit="10" fill="#FFFFFF"/><path d="M695.5 263C695.5 259.41 698.186 256.5 701.5 256.5 704.814 256.5 707.5 259.41 707.5 263 707.5 266.59 704.814 269.5 701.5 269.5 698.186 269.5 695.5 266.59 695.5 263Z" stroke="#433643" stroke-width="1.13333" stroke-linejoin="round" stroke-miterlimit="10" fill="#F3F0F3" fill-rule="evenodd"/><path d="M672.5 282C672.5 278.41 675.186 275.5 678.5 275.5 681.814 275.5 684.5 278.41 684.5 282 684.5 285.59 681.814 288.5 678.5 288.5 675.186 288.5 672.5 285.59 672.5 282Z" stroke="#433643" stroke-width="1.13333" stroke-linejoin="round" stroke-miterlimit="10" fill="#F3F0F3" fill-rule="evenodd"/><path d="M717.5 282C717.5 278.41 720.186 275.5 723.5 275.5 726.814 275.5 729.5 278.41 729.5 282 729.5 285.59 726.814 288.5 723.5 288.5 720.186 288.5 717.5 285.59 717.5 282Z" stroke="#433643" stroke-width="1.13333" stroke-linejoin="round" stroke-miterlimit="10" fill="#F3F0F3" fill-rule="evenodd"/><path d="M701.5 306C701.5 302.41 704.186 299.5 707.5 299.5 710.814 299.5 713.5 302.41 713.5 306 713.5 309.59 710.814 312.5 707.5 312.5 704.186 312.5 701.5 309.59 701.5 306Z" stroke="#433643" stroke-width="1.13333" stroke-linejoin="round" stroke-miterlimit="10" fill="#F3F0F3" fill-rule="evenodd"/><path d="M737.5 306C737.5 302.41 740.186 299.5 743.5 299.5 746.814 299.5 749.5 302.41 749.5 306 749.5 309.59 746.814 312.5 743.5 312.5 740.186 312.5 737.5 309.59 737.5 306Z" stroke="#433643" stroke-width="1.13333" stroke-linejoin="round" stroke-miterlimit="10" fill="#F3F0F3" fill-rule="evenodd"/><path d="M682.5 306C682.5 302.41 685.41 299.5 689 299.5 692.59 299.5 695.5 302.41 695.5 306 695.5 309.59 692.59 312.5 689 312.5 685.41 312.5 682.5 309.59 682.5 306Z" stroke="#433643" stroke-width="1.13333" stroke-linejoin="round" stroke-miterlimit="10" fill="#F3F0F3" fill-rule="evenodd"/><path d="M750.5 325C750.5 321.41 753.186 318.5 756.5 318.5 759.814 318.5 762.5 321.41 762.5 325 762.5 328.59 759.814 331.5 756.5 331.5 753.186 331.5 750.5 328.59 750.5 325Z" stroke="#433643" stroke-width="1.13333" stroke-linejoin="round" stroke-miterlimit="10" fill="#F3F0F3" fill-rule="evenodd"/><path d="M660.5 306C660.5 302.41 663.186 299.5 666.5 299.5 669.814 299.5 672.5 302.41 672.5 306 672.5 309.59 669.814 312.5 666.5 312.5 663.186 312.5 660.5 309.59 660.5 306Z" stroke="#433643" stroke-width="1.13333" stroke-linejoin="round" stroke-miterlimit="10" fill="#F3F0F3" fill-rule="evenodd"/><path d="M724.5 325C724.5 321.41 727.41 318.5 731 318.5 734.59 318.5 737.5 321.41 737.5 325 737.5 328.59 734.59 331.5 731 331.5 727.41 331.5 724.5 328.59 724.5 325Z" stroke="#433643" stroke-width="1.13333" stroke-linejoin="round" stroke-miterlimit="10" fill="#F3F0F3" fill-rule="evenodd"/><path d="M705.81 267.108 713.821 273.45 713.201 274.234 705.19 267.892ZM714.948 269.878 718.738 277.98 709.983 276.15Z" fill="#433643"/><path d="M0.302374-0.398208 8.79388 6.04971 8.18913 6.84613-0.302374 0.398208ZM9.84861 2.45592 13.8009 10.4796 5.01062 8.82725Z" fill="#433643" transform="matrix(-1 0 0 1 697.301 267.5)"/><path d="M0.42742-0.259446 4.99838 7.27091 4.14354 7.7898-0.42742 0.259446ZM7.29846 4.315 8.03024 13.2293 0.459743 8.46614Z" fill="#433643" transform="matrix(-1 0 0 1 674.53 286.5)"/><path d="M0.378505-0.326702 7.44117 7.85586 6.68416 8.50926-0.378505 0.326702ZM9.2195 4.5596 11.4187 13.2293 3.16342 9.78682Z" fill="#433643" transform="matrix(-1 0 0 1 718.919 286.5)"/><path d="M727.823 286.118 738.396 295.046 737.751 295.81 727.177 286.882ZM739.636 291.512 743.168 299.729 734.475 297.624Z" fill="#433643"/><path d="M0.36095-0.345999 3.77786 3.21856 3.05596 3.91056-0.36095 0.345999ZM5.38185-0.165968 8.03024 8.37722-0.393346 5.37002Z" fill="#433643" transform="matrix(-1 0 0 1 738.53 310.5)"/><path d="M747.852 310.145 751.57 313.829 750.866 314.54 747.148 310.855ZM753.086 310.405 755.953 318.877 747.455 316.087Z" fill="#433643"/><path d="M683.956 286.294 687.197 293.45 686.287 293.863 683.045 286.706ZM689.835 290.792 689.493 299.729 682.548 294.093Z" fill="#433643"/><path d="M822.5 263C822.5 259.41 825.41 256.5 829 256.5 832.59 256.5 835.5 259.41 835.5 263 835.5 266.59 832.59 269.5 829 269.5 825.41 269.5 822.5 266.59 822.5 263Z" stroke="#433643" stroke-width="1.13333" stroke-linejoin="round" stroke-miterlimit="10" fill="#F3F0F3" fill-rule="evenodd"/><path d="M800.5 282C800.5 278.41 803.186 275.5 806.5 275.5 809.814 275.5 812.5 278.41 812.5 282 812.5 285.59 809.814 288.5 806.5 288.5 803.186 288.5 800.5 285.59 800.5 282Z" stroke="#433643" stroke-width="1.13333" stroke-linejoin="round" stroke-miterlimit="10" fill="#F3F0F3" fill-rule="evenodd"/><path d="M844.5 282C844.5 278.41 847.41 275.5 851 275.5 854.59 275.5 857.5 278.41 857.5 282 857.5 285.59 854.59 288.5 851 288.5 847.41 288.5 844.5 285.59 844.5 282Z" stroke="#433643" stroke-width="1.13333" stroke-linejoin="round" stroke-miterlimit="10" fill="#F3F0F3" fill-rule="evenodd"/><path d="M830.5 325C830.5 321.41 833.186 318.5 836.5 318.5 839.814 318.5 842.5 321.41 842.5 325 842.5 328.59 839.814 331.5 836.5 331.5 833.186 331.5 830.5 328.59 830.5 325Z" stroke="#433643" stroke-width="1.13333" stroke-linejoin="round" stroke-miterlimit="10" fill="#F3F0F3" fill-rule="evenodd"/><path d="M797.5 325C797.5 321.41 800.186 318.5 803.5 318.5 806.814 318.5 809.5 321.41 809.5 325 809.5 328.59 806.814 331.5 803.5 331.5 800.186 331.5 797.5 328.59 797.5 325Z" stroke="#433643" stroke-width="1.13333" stroke-linejoin="round" stroke-miterlimit="10" fill="#F3F0F3" fill-rule="evenodd"/><path d="M810.5 306C810.5 302.41 813.41 299.5 817 299.5 820.59 299.5 823.5 302.41 823.5 306 823.5 309.59 820.59 312.5 817 312.5 813.41 312.5 810.5 309.59 810.5 306Z" stroke="#433643" stroke-width="1.13333" stroke-linejoin="round" stroke-miterlimit="10" fill="#F3F0F3" fill-rule="evenodd"/><path d="M810.5 351.5C810.5 348.186 813.186 345.5 816.5 345.5 819.814 345.5 822.5 348.186 822.5 351.5 822.5 354.814 819.814 357.5 816.5 357.5 813.186 357.5 810.5 354.814 810.5 351.5Z" stroke="#433643" stroke-width="1.13333" stroke-linejoin="round" stroke-miterlimit="10" fill="#F3F0F3" fill-rule="evenodd"/><path d="M787.5 306C787.5 302.41 790.41 299.5 794 299.5 797.59 299.5 800.5 302.41 800.5 306 800.5 309.59 797.59 312.5 794 312.5 790.41 312.5 787.5 309.59 787.5 306Z" stroke="#433643" stroke-width="1.13333" stroke-linejoin="round" stroke-miterlimit="10" fill="#F3F0F3" fill-rule="evenodd"/><path d="M784.5 351.5C784.5 348.186 787.41 345.5 791 345.5 794.59 345.5 797.5 348.186 797.5 351.5 797.5 354.814 794.59 357.5 791 357.5 787.41 357.5 784.5 354.814 784.5 351.5Z" stroke="#433643" stroke-width="1.13333" stroke-linejoin="round" stroke-miterlimit="10" fill="#F3F0F3" fill-rule="evenodd"/><path d="M833.81 267.108 841.821 273.45 841.201 274.234 833.19 267.892ZM842.948 269.878 846.738 277.98 837.983 276.15Z" fill="#433643"/><path d="M0.302374-0.398208 8.79388 6.04971 8.18913 6.84613-0.302374 0.398208ZM9.84861 2.45592 13.8009 10.4796 5.01062 8.82725Z" fill="#433643" transform="matrix(-1 0 0 1 824.301 267.5)"/><path d="M0.42742-0.259446 4.99838 7.27091 4.14354 7.7898-0.42742 0.259446ZM7.29846 4.315 8.03024 13.2293 0.459743 8.46614Z" fill="#433643" transform="matrix(-1 0 0 1 802.53 286.5)"/><path d="M0.339733-0.366854 4.49433 3.4806 3.81487 4.2143-0.339733 0.366854ZM5.89418 0.00666503 9.04598 8.37722 0.458461 5.87633Z" fill="#433643" transform="matrix(-1 0 0 1 812.546 310.5)"/><path d="M0.447577-0.222879 5.50609 9.93542 4.61094 10.3812-0.447577 0.222879ZM8.04478 7.18172 8.03024 16.126 0.883556 10.7478Z" fill="#433643" transform="matrix(-1 0 0 1 798.53 329.5)"/><path d="M807.943 329.268 813.301 339.489 812.415 339.954 807.057 329.732ZM815.782 336.683 815.953 345.626 808.696 340.398Z" fill="#433643"/><path d="M810.956 286.294 814.197 293.45 813.287 293.863 810.045 286.706ZM816.835 290.792 816.493 299.729 809.548 294.093Z" fill="#433643"/><path d="M968.5 263C968.5 259.41 971.41 256.5 975 256.5 978.59 256.5 981.5 259.41 981.5 263 981.5 266.59 978.59 269.5 975 269.5 971.41 269.5 968.5 266.59 968.5 263Z" stroke="#433643" stroke-width="1.13333" stroke-linejoin="round" stroke-miterlimit="10" fill="#F3F0F3" fill-rule="evenodd"/><path d="M946.5 282C946.5 278.41 949.186 275.5 952.5 275.5 955.814 275.5 958.5 278.41 958.5 282 958.5 285.59 955.814 288.5 952.5 288.5 949.186 288.5 946.5 285.59 946.5 282Z" stroke="#433643" stroke-width="1.13333" stroke-linejoin="round" stroke-miterlimit="10" fill="#F3F0F3" fill-rule="evenodd"/><path d="M990.5 282C990.5 278.41 993.41 275.5 997 275.5 1000.59 275.5 1003.5 278.41 1003.5 282 1003.5 285.59 1000.59 288.5 997 288.5 993.41 288.5 990.5 285.59 990.5 282Z" stroke="#433643" stroke-width="1.13333" stroke-linejoin="round" stroke-miterlimit="10" fill="#F3F0F3" fill-rule="evenodd"/><path d="M956.5 306C956.5 302.41 959.41 299.5 963 299.5 966.59 299.5 969.5 302.41 969.5 306 969.5 309.59 966.59 312.5 963 312.5 959.41 312.5 956.5 309.59 956.5 306Z" stroke="#433643" stroke-width="1.13333" stroke-linejoin="round" stroke-miterlimit="10" fill="#F3F0F3" fill-rule="evenodd"/><path d="M933.5 306C933.5 302.41 936.41 299.5 940 299.5 943.59 299.5 946.5 302.41 946.5 306 946.5 309.59 943.59 312.5 940 312.5 936.41 312.5 933.5 309.59 933.5 306Z" stroke="#433643" stroke-width="1.13333" stroke-linejoin="round" stroke-miterlimit="10" fill="#F3F0F3" fill-rule="evenodd"/><path d="M979.81 267.108 987.821 273.45 987.201 274.234 979.19 267.892ZM988.948 269.878 992.738 277.98 983.983 276.15Z" fill="#433643"/><path d="M0.302374-0.398208 8.79388 6.04971 8.18913 6.84613-0.302374 0.398208ZM9.84861 2.45592 13.8009 10.4796 5.01062 8.82725Z" fill="#433643" transform="matrix(-1 0 0 1 970.301 267.5)"/><path d="M0.42742-0.259446 4.99838 7.27091 4.14354 7.7898-0.42742 0.259446ZM7.29846 4.315 8.03024 13.2293 0.459743 8.46614Z" fill="#433643" transform="matrix(-1 0 0 1 948.53 286.5)"/><path d="M956.956 286.294 960.197 293.45 959.287 293.863 956.045 286.706ZM962.835 290.792 962.493 299.729 955.548 294.093Z" fill="#433643"/><path d="M763.018 270.266 767.766 270.266 767.766 265.151 772.234 265.151 772.234 270.266 776.982 270.266 776.982 274.734 772.234 274.734 772.234 279.849 767.766 279.849 767.766 274.734 763.018 274.734Z" stroke="#433643" stroke-width="1.13333" stroke-miterlimit="8" fill="#F3F0F3" fill-rule="evenodd"/><path d="M866.886 266.883 871.383 266.883 871.383 262.019 875.617 262.019 875.617 266.883 880.114 266.883 880.114 271.117 875.617 271.117 875.617 275.982 871.383 275.982 871.383 271.117 866.886 271.117Z" stroke="#433643" stroke-width="1.13333" stroke-miterlimit="8" fill="#F3F0F3" fill-rule="evenodd"/><path d="M920.886 266.883 925.383 266.883 925.383 262.019 929.617 262.019 929.617 266.883 934.114 266.883 934.114 271.117 929.617 271.117 929.617 275.982 925.383 275.982 925.383 271.117 920.886 271.117Z" stroke="#433643" stroke-width="1.13333" stroke-miterlimit="8" fill="#F3F0F3" fill-rule="evenodd"/><path d="M821.845 310.138 827.707 315.732 827.017 316.456 821.155 310.862ZM829.159 312.28 832.185 320.697 823.636 318.067Z" fill="#433643"/><rect x="882" y="248" width="34" height="32" fill="#FFFFFF"/><text font-family="Avenir Next LT Pro Light,Avenir Next LT Pro Light_MSFontService,sans-serif" font-weight="700" font-size="32" transform="translate(891.978 283)">…</text><path d="M763.5 565C763.5 556.44 770.44 549.5 779 549.5L923 549.5C931.56 549.5 938.5 556.44 938.5 565L938.5 627C938.5 635.56 931.56 642.5 923 642.5L779 642.5C770.44 642.5 763.5 635.56 763.5 627Z" stroke="#000000" stroke-width="1.13333" stroke-linejoin="round" stroke-miterlimit="10" fill="#FFFFFF" fill-rule="evenodd"/><text font-family="Avenir Next LT Pro Light,Avenir Next LT Pro Light_MSFontService,sans-serif" font-weight="300" font-size="21" transform="translate(805.954 585)">Selection<tspan font-size="15" x="-6.66663" y="20">Roulette wheel </tspan><tspan font-size="15" x="-36.42" y="37">(Best solution continues)</tspan></text><path d="M302.5 565C302.5 556.44 309.44 549.5 318 549.5L462 549.5C470.56 549.5 477.5 556.44 477.5 565L477.5 627C477.5 635.56 470.56 642.5 462 642.5L318 642.5C309.44 642.5 302.5 635.56 302.5 627Z" stroke="#000000" stroke-width="1.13333" stroke-linejoin="round" stroke-miterlimit="10" fill="#FFFFFF" fill-rule="evenodd"/><text font-family="Avenir Next LT Pro Light,Avenir Next LT Pro Light_MSFontService,sans-serif" font-weight="300" font-size="21" transform="translate(341.777 585)">Mutations<tspan font-size="15" x="7.73334" y="20">Single point</tspan><tspan font-size="15" x="-27.4333" y="37">(Continues and binary)</tspan></text><path d="M692 485 759.885 485.003 759.885 487.003 692 487ZM752.389 480.472 761.87 486.003 752.389 491.533C751.912 491.811 751.299 491.65 751.021 491.173 750.743 490.696 750.904 490.084 751.381 489.805L759.381 485.139 759.381 486.867 751.381 482.2C750.904 481.921 750.743 481.309 751.022 480.832 751.3 480.355 751.912 480.194 752.389 480.472Z"/><path d="M0.0101474-0.999949 62.5871-0.364922 62.5668 1.63498-0.0101474 0.999949ZM55.1373-4.9712 64.5615 0.655165 55.0251 6.08912C54.5452 6.36255 53.9346 6.1952 53.6612 5.71535 53.3877 5.2355 53.5551 4.62485 54.0349 4.35143L62.0819-0.233821 62.0643 1.49365 54.1121-3.25396C53.6379-3.53706 53.483-4.15099 53.7661-4.62519 54.0492-5.09939 54.6631-5.25431 55.1373-4.9712Z" transform="matrix(-1 0 0 1 763.557 595)"/><path d="M524.5 565C524.5 556.44 531.44 549.5 540 549.5L684 549.5C692.56 549.5 699.5 556.44 699.5 565L699.5 627C699.5 635.56 692.56 642.5 684 642.5L540 642.5C531.44 642.5 524.5 635.56 524.5 627Z" stroke="#000000" stroke-width="1.13333" stroke-linejoin="round" stroke-miterlimit="10" fill="#FFFFFF" fill-rule="evenodd"/><text font-family="Avenir Next LT Pro Light,Avenir Next LT Pro Light_MSFontService,sans-serif" font-weight="300" font-size="21" transform="translate(563.022 585)">Crossover<tspan font-size="15" x="-36.02" y="20">Two</tspan><tspan font-size="15" x="-8.18671" y="20">-</tspan><tspan font-size="15" x="-3.52002" y="20">point recombination</tspan></text><path d="M524.003 596.655 478.966 596.027 478.994 594.028 524.03 594.655ZM486.398 600.662 476.995 595 486.552 589.602C487.033 589.331 487.643 589.5 487.915 589.981 488.186 590.462 488.017 591.072 487.536 591.344L479.472 595.898 479.496 594.171 487.43 598.949C487.903 599.233 488.056 599.848 487.771 600.321 487.486 600.794 486.871 600.947 486.398 600.662Z"/><path d="M118.5 595.5 184.5 529.5 250.5 595.5 184.5 661.5Z" stroke="#000000" stroke-width="1.13333" stroke-linejoin="round" stroke-miterlimit="10" fill="#FFFFFF" fill-rule="evenodd"/><text font-family="Avenir Next LT Pro Light,Avenir Next LT Pro Light_MSFontService,sans-serif" font-weight="300" font-size="21" transform="translate(149.168 590)">Ending<tspan font-size="21" x="-0.41333" y="26">Criteria</tspan><tspan font-size="21" x="-16.9162" y="89">Yes</tspan><tspan font-size="21" x="-46.292" y="-33">No</tspan></text><rect x="200.5" y="229.5" width="354" height="122" stroke="#1B151B" stroke-width="1.13333" stroke-linejoin="round" stroke-miterlimit="10" fill="#FFFFFF"/><rect x="210.5" y="237.5" width="355" height="122" stroke="#1B151B" stroke-width="1.13333" stroke-linejoin="round" stroke-miterlimit="10" fill="#FFFFFF"/><rect x="222.5" y="245.5" width="354" height="122" stroke="#1B151B" stroke-width="1.13333" stroke-linejoin="round" stroke-miterlimit="10" fill="#FFFFFF"/><path d="M262.5 263C262.5 259.41 265.41 256.5 269 256.5 272.59 256.5 275.5 259.41 275.5 263 275.5 266.59 272.59 269.5 269 269.5 265.41 269.5 262.5 266.59 262.5 263Z" stroke="#433643" stroke-width="1.13333" stroke-linejoin="round" stroke-miterlimit="10" fill="#F3F0F3" fill-rule="evenodd"/><path d="M240.5 282C240.5 278.41 243.186 275.5 246.5 275.5 249.814 275.5 252.5 278.41 252.5 282 252.5 285.59 249.814 288.5 246.5 288.5 243.186 288.5 240.5 285.59 240.5 282Z" stroke="#433643" stroke-width="1.13333" stroke-linejoin="round" stroke-miterlimit="10" fill="#F3F0F3" fill-rule="evenodd"/><path d="M284.5 282C284.5 278.41 287.41 275.5 291 275.5 294.59 275.5 297.5 278.41 297.5 282 297.5 285.59 294.59 288.5 291 288.5 287.41 288.5 284.5 285.59 284.5 282Z" stroke="#433643" stroke-width="1.13333" stroke-linejoin="round" stroke-miterlimit="10" fill="#F3F0F3" fill-rule="evenodd"/><path d="M268.5 306C268.5 302.41 271.41 299.5 275 299.5 278.59 299.5 281.5 302.41 281.5 306 281.5 309.59 278.59 312.5 275 312.5 271.41 312.5 268.5 309.59 268.5 306Z" stroke="#433643" stroke-width="1.13333" stroke-linejoin="round" stroke-miterlimit="10" fill="#F3F0F3" fill-rule="evenodd"/><path d="M304.5 306C304.5 302.41 307.41 299.5 311 299.5 314.59 299.5 317.5 302.41 317.5 306 317.5 309.59 314.59 312.5 311 312.5 307.41 312.5 304.5 309.59 304.5 306Z" stroke="#433643" stroke-width="1.13333" stroke-linejoin="round" stroke-miterlimit="10" fill="#F3F0F3" fill-rule="evenodd"/><path d="M250.5 306C250.5 302.41 253.186 299.5 256.5 299.5 259.814 299.5 262.5 302.41 262.5 306 262.5 309.59 259.814 312.5 256.5 312.5 253.186 312.5 250.5 309.59 250.5 306Z" stroke="#433643" stroke-width="1.13333" stroke-linejoin="round" stroke-miterlimit="10" fill="#F3F0F3" fill-rule="evenodd"/><path d="M317.5 325C317.5 321.41 320.41 318.5 324 318.5 327.59 318.5 330.5 321.41 330.5 325 330.5 328.59 327.59 331.5 324 331.5 320.41 331.5 317.5 328.59 317.5 325Z" stroke="#433643" stroke-width="1.13333" stroke-linejoin="round" stroke-miterlimit="10" fill="#F3F0F3" fill-rule="evenodd"/><path d="M227.5 306C227.5 302.41 230.41 299.5 234 299.5 237.59 299.5 240.5 302.41 240.5 306 240.5 309.59 237.59 312.5 234 312.5 230.41 312.5 227.5 309.59 227.5 306Z" stroke="#433643" stroke-width="1.13333" stroke-linejoin="round" stroke-miterlimit="10" fill="#F3F0F3" fill-rule="evenodd"/><path d="M292.5 325C292.5 321.41 295.186 318.5 298.5 318.5 301.814 318.5 304.5 321.41 304.5 325 304.5 328.59 301.814 331.5 298.5 331.5 295.186 331.5 292.5 328.59 292.5 325Z" stroke="#433643" stroke-width="1.13333" stroke-linejoin="round" stroke-miterlimit="10" fill="#F3F0F3" fill-rule="evenodd"/><path d="M273.81 267.108 281.821 273.45 281.2 274.234 273.19 267.892ZM282.948 269.878 286.738 277.98 277.983 276.15Z" fill="#433643"/><path d="M0.302374-0.398208 8.79388 6.04971 8.18913 6.84613-0.302374 0.398208ZM9.84861 2.45592 13.8009 10.4796 5.01062 8.82725Z" fill="#433643" transform="matrix(-1 0 0 1 264.301 267.5)"/><path d="M0.42742-0.259446 4.99838 7.27091 4.14354 7.7898-0.42742 0.259446ZM7.29846 4.315 8.03024 13.2293 0.459743 8.46614Z" fill="#433643" transform="matrix(-1 0 0 1 241.53 286.5)"/><path d="M0.378505-0.326702 7.44117 7.85586 6.68416 8.50926-0.378505 0.326702ZM9.2195 4.5596 11.4187 13.2293 3.16342 9.78682Z" fill="#433643" transform="matrix(-1 0 0 1 286.919 286.5)"/><path d="M295.823 286.118 306.396 295.046 305.751 295.81 295.177 286.882ZM307.636 291.512 311.168 299.729 302.475 297.624Z" fill="#433643"/><path d="M0.36095-0.345999 3.77786 3.21856 3.05596 3.91056-0.36095 0.345999ZM5.38185-0.165968 8.03024 8.37722-0.393346 5.37002Z" fill="#433643" transform="matrix(-1 0 0 1 306.53 310.5)"/><path d="M315.852 310.145 319.57 313.829 318.866 314.54 315.148 310.855ZM321.086 310.405 323.953 318.877 315.455 316.087Z" fill="#433643"/><path d="M250.955 286.294 254.197 293.45 253.287 293.863 250.045 286.706ZM256.835 290.792 256.493 299.729 249.548 294.093Z" fill="#433643"/><path d="M390.5 263C390.5 259.41 393.186 256.5 396.5 256.5 399.814 256.5 402.5 259.41 402.5 263 402.5 266.59 399.814 269.5 396.5 269.5 393.186 269.5 390.5 266.59 390.5 263Z" stroke="#433643" stroke-width="1.13333" stroke-linejoin="round" stroke-miterlimit="10" fill="#F3F0F3" fill-rule="evenodd"/><path d="M367.5 282C367.5 278.41 370.41 275.5 374 275.5 377.59 275.5 380.5 278.41 380.5 282 380.5 285.59 377.59 288.5 374 288.5 370.41 288.5 367.5 285.59 367.5 282Z" stroke="#433643" stroke-width="1.13333" stroke-linejoin="round" stroke-miterlimit="10" fill="#F3F0F3" fill-rule="evenodd"/><path d="M412.5 282C412.5 278.41 415.186 275.5 418.5 275.5 421.814 275.5 424.5 278.41 424.5 282 424.5 285.59 421.814 288.5 418.5 288.5 415.186 288.5 412.5 285.59 412.5 282Z" stroke="#433643" stroke-width="1.13333" stroke-linejoin="round" stroke-miterlimit="10" fill="#F3F0F3" fill-rule="evenodd"/><path d="M397.5 325C397.5 321.41 400.41 318.5 404 318.5 407.59 318.5 410.5 321.41 410.5 325 410.5 328.59 407.59 331.5 404 331.5 400.41 331.5 397.5 328.59 397.5 325Z" stroke="#433643" stroke-width="1.13333" stroke-linejoin="round" stroke-miterlimit="10" fill="#F3F0F3" fill-rule="evenodd"/><path d="M364.5 325C364.5 321.41 367.41 318.5 371 318.5 374.59 318.5 377.5 321.41 377.5 325 377.5 328.59 374.59 331.5 371 331.5 367.41 331.5 364.5 328.59 364.5 325Z" stroke="#433643" stroke-width="1.13333" stroke-linejoin="round" stroke-miterlimit="10" fill="#F3F0F3" fill-rule="evenodd"/><path d="M378.5 306C378.5 302.41 381.186 299.5 384.5 299.5 387.814 299.5 390.5 302.41 390.5 306 390.5 309.59 387.814 312.5 384.5 312.5 381.186 312.5 378.5 309.59 378.5 306Z" stroke="#433643" stroke-width="1.13333" stroke-linejoin="round" stroke-miterlimit="10" fill="#F3F0F3" fill-rule="evenodd"/><path d="M377.5 351.5C377.5 348.186 380.41 345.5 384 345.5 387.59 345.5 390.5 348.186 390.5 351.5 390.5 354.814 387.59 357.5 384 357.5 380.41 357.5 377.5 354.814 377.5 351.5Z" stroke="#433643" stroke-width="1.13333" stroke-linejoin="round" stroke-miterlimit="10" fill="#F3F0F3" fill-rule="evenodd"/><path d="M355.5 306C355.5 302.41 358.186 299.5 361.5 299.5 364.814 299.5 367.5 302.41 367.5 306 367.5 309.59 364.814 312.5 361.5 312.5 358.186 312.5 355.5 309.59 355.5 306Z" stroke="#433643" stroke-width="1.13333" stroke-linejoin="round" stroke-miterlimit="10" fill="#F3F0F3" fill-rule="evenodd"/><path d="M352.5 351.5C352.5 348.186 355.186 345.5 358.5 345.5 361.814 345.5 364.5 348.186 364.5 351.5 364.5 354.814 361.814 357.5 358.5 357.5 355.186 357.5 352.5 354.814 352.5 351.5Z" stroke="#433643" stroke-width="1.13333" stroke-linejoin="round" stroke-miterlimit="10" fill="#F3F0F3" fill-rule="evenodd"/><path d="M401.81 267.108 409.821 273.45 409.2 274.234 401.19 267.892ZM410.948 269.878 414.738 277.98 405.983 276.15Z" fill="#433643"/><path d="M0.302374-0.398208 8.79388 6.04971 8.18913 6.84613-0.302374 0.398208ZM9.84861 2.45592 13.8009 10.4796 5.01062 8.82725Z" fill="#433643" transform="matrix(-1 0 0 1 392.301 267.5)"/><path d="M0.42742-0.259446 4.99838 7.27091 4.14354 7.7898-0.42742 0.259446ZM7.29846 4.315 8.03024 13.2293 0.459743 8.46614Z" fill="#433643" transform="matrix(-1 0 0 1 369.53 286.5)"/><path d="M0.339733-0.366854 4.49433 3.4806 3.81487 4.2143-0.339733 0.366854ZM5.89418 0.00666503 9.04598 8.37722 0.458461 5.87633Z" fill="#433643" transform="matrix(-1 0 0 1 380.546 310.5)"/><path d="M0.447577-0.222879 5.50609 9.93542 4.61094 10.3812-0.447577 0.222879ZM8.04478 7.18172 8.03024 16.126 0.883556 10.7478Z" fill="#433643" transform="matrix(-1 0 0 1 366.53 329.5)"/><path d="M375.943 329.268 381.301 339.489 380.415 339.954 375.057 329.732ZM383.782 336.683 383.953 345.626 376.696 340.398Z" fill="#433643"/><path d="M378.956 286.294 382.197 293.45 381.287 293.863 378.045 286.706ZM384.835 290.792 384.493 299.729 377.548 294.093Z" fill="#433643"/><path d="M536.5 263C536.5 259.41 539.41 256.5 543 256.5 546.59 256.5 549.5 259.41 549.5 263 549.5 266.59 546.59 269.5 543 269.5 539.41 269.5 536.5 266.59 536.5 263Z" stroke="#433643" stroke-width="1.13333" stroke-linejoin="round" stroke-miterlimit="10" fill="#F3F0F3" fill-rule="evenodd"/><path d="M514.5 282C514.5 278.41 517.186 275.5 520.5 275.5 523.814 275.5 526.5 278.41 526.5 282 526.5 285.59 523.814 288.5 520.5 288.5 517.186 288.5 514.5 285.59 514.5 282Z" stroke="#433643" stroke-width="1.13333" stroke-linejoin="round" stroke-miterlimit="10" fill="#F3F0F3" fill-rule="evenodd"/><path d="M558.5 282C558.5 278.41 561.41 275.5 565 275.5 568.59 275.5 571.5 278.41 571.5 282 571.5 285.59 568.59 288.5 565 288.5 561.41 288.5 558.5 285.59 558.5 282Z" stroke="#433643" stroke-width="1.13333" stroke-linejoin="round" stroke-miterlimit="10" fill="#F3F0F3" fill-rule="evenodd"/><path d="M524.5 306C524.5 302.41 527.186 299.5 530.5 299.5 533.814 299.5 536.5 302.41 536.5 306 536.5 309.59 533.814 312.5 530.5 312.5 527.186 312.5 524.5 309.59 524.5 306Z" stroke="#433643" stroke-width="1.13333" stroke-linejoin="round" stroke-miterlimit="10" fill="#F3F0F3" fill-rule="evenodd"/><path d="M501.5 306C501.5 302.41 504.41 299.5 508 299.5 511.59 299.5 514.5 302.41 514.5 306 514.5 309.59 511.59 312.5 508 312.5 504.41 312.5 501.5 309.59 501.5 306Z" stroke="#433643" stroke-width="1.13333" stroke-linejoin="round" stroke-miterlimit="10" fill="#F3F0F3" fill-rule="evenodd"/><path d="M547.81 267.108 555.821 273.45 555.201 274.234 547.19 267.892ZM556.948 269.878 560.738 277.98 551.983 276.15Z" fill="#433643"/><path d="M0.302374-0.398208 8.79388 6.04971 8.18913 6.84613-0.302374 0.398208ZM9.84861 2.45592 13.8009 10.4796 5.01062 8.82725Z" fill="#433643" transform="matrix(-1 0 0 1 538.301 267.5)"/><path d="M0.42742-0.259446 4.99838 7.27091 4.14354 7.7898-0.42742 0.259446ZM7.29846 4.315 8.03024 13.2293 0.459743 8.46614Z" fill="#433643" transform="matrix(-1 0 0 1 515.53 286.5)"/><path d="M524.956 286.294 528.197 293.45 527.287 293.863 524.045 286.706ZM530.835 290.792 530.493 299.729 523.548 294.093Z" fill="#433643"/><path d="M330.886 270.383 335.383 270.383 335.383 265.151 339.617 265.151 339.617 270.383 344.114 270.383 344.114 274.617 339.617 274.617 339.617 279.849 335.383 279.849 335.383 274.617 330.886 274.617Z" stroke="#433643" stroke-width="1.13333" stroke-miterlimit="8" fill="#F3F0F3" fill-rule="evenodd"/><path d="M434.886 266.883 439.383 266.883 439.383 262.019 443.617 262.019 443.617 266.883 448.114 266.883 448.114 271.117 443.617 271.117 443.617 275.982 439.383 275.982 439.383 271.117 434.886 271.117Z" stroke="#433643" stroke-width="1.13333" stroke-miterlimit="8" fill="#F3F0F3" fill-rule="evenodd"/><path d="M488.886 266.883 493.383 266.883 493.383 262.019 497.617 262.019 497.617 266.883 502.114 266.883 502.114 271.117 497.617 271.117 497.617 275.982 493.383 275.982 493.383 271.117 488.886 271.117Z" stroke="#433643" stroke-width="1.13333" stroke-miterlimit="8" fill="#F3F0F3" fill-rule="evenodd"/><path d="M388.845 310.138 394.707 315.732 394.017 316.456 388.155 310.862ZM396.159 312.28 399.185 320.697 390.636 318.067Z" fill="#433643"/><rect x="450" y="248" width="34" height="32" fill="#FFFFFF"/><text font-family="Avenir Next LT Pro Light,Avenir Next LT Pro Light_MSFontService,sans-serif" font-weight="700" font-size="32" transform="translate(459.638 283)">…<tspan font-weight="300" font-size="27" x="130.081" y="18">…</tspan><tspan font-style="italic" font-weight="300" font-size="16" x="418.529" y="53">XGBoost models</tspan><tspan font-style="italic" font-weight="300" font-size="16" x="435.702" y="72">stratified CV</tspan><tspan font-style="italic" font-weight="300" font-size="16" x="-12.52" y="54">XGBoost models</tspan><tspan font-style="italic" font-weight="300" font-size="16" x="4.65335" y="73">stratified CV</tspan></text><path d="M602.631 137 602.631 172.858C602.631 173.41 602.183 173.858 601.631 173.858L377 173.858 378 172.858 378 222.476 376 222.476 376 172.858C376 172.306 376.448 171.858 377 171.858L601.631 171.858 600.631 172.858 600.631 137ZM381 221.142 377 229.142 373 221.142Z"/><path d="M0-1 35.8581-1C36.4104-1 36.8581-0.552285 36.8581 0L36.8581 207.709 35.8581 206.709 85.4757 206.709 85.4757 208.709 35.8581 208.709C35.3058 208.709 34.8581 208.262 34.8581 207.709L34.8581 0 35.8581 1 0 1ZM84.1424 203.709 92.1424 207.709 84.1424 211.709Z" transform="matrix(1.83697e-16 1 1 -1.83697e-16 602 137)"/><path d="M832.092 367 832.092 402.253C832.092 402.805 831.644 403.253 831.092 403.253L606 403.253 607 402.253 607 430.838 605 430.838 605 402.253C605 401.7 605.448 401.253 606 401.253L831.092 401.253 830.092 402.253 830.092 367ZM610 429.505 606 437.505 602 429.505Z"/><path d="M0-1 35.2526-1C35.8049-1 36.2526-0.552285 36.2526 0L36.2526 207.248 35.2526 206.248 63.8383 206.248 63.8383 208.248 35.2526 208.248C34.7003 208.248 34.2526 207.8 34.2526 207.248L34.2526 0 35.2526 1 0 1ZM62.505 203.248 70.505 207.248 62.505 211.248Z" transform="matrix(1.83697e-16 1 1 -1.83697e-16 399 367)"/><path d="M937 485 988.774 485C989.326 485 989.774 485.448 989.774 486L989.774 594.903C989.774 595.455 989.326 595.903 988.774 595.903L944.887 595.903 944.887 593.903 988.774 593.903 987.774 594.903 987.774 486 988.774 487 937 487ZM946.22 598.903 938.22 594.903 946.22 590.903Z"/><path d="M0 1-23.9998 1-22.9998 0-22.9998 309.385-23.9998 308.385 49.4404 308.385 49.4404 310.385-23.9998 310.385C-24.5521 310.385-24.9998 309.937-24.9998 309.385L-24.9998 0C-24.9998-0.552285-24.5521-1-23.9998-1L0-1ZM48.1071 305.385 56.1071 309.385 48.1071 313.385Z" transform="matrix(1 -1.22465e-16 -1.22465e-16 -1 118 595.385)"/><path d="M2.01568e-06-1 50.1052-0.999899 50.1052 1.0001-2.01568e-06 1ZM42.609-5.53036 52.0898 0.00010483 42.609 5.53053C42.132 5.80881 41.5196 5.64767 41.2414 5.17062 40.9631 4.69357 41.1242 4.08125 41.6013 3.80297L49.6013-0.863679 49.6013 0.863879 41.6013-3.8028C41.1242-4.08109 40.9631-4.6934 41.2414-5.17045 41.5197-5.64751 42.132-5.80864 42.609-5.53036Z" transform="matrix(-1 0 0 1 302.085 595)"/><path d="M185 661 185 717.748 183 717.748 183 661ZM189.531 710.252 184 719.733 178.47 710.252C178.191 709.775 178.352 709.163 178.83 708.885 179.307 708.606 179.919 708.767 180.197 709.245L184.864 717.245 183.136 717.245 187.803 709.245C188.081 708.767 188.694 708.606 189.171 708.885 189.648 709.163 189.809 709.775 189.531 710.252Z"/></g></svg>